<svg width="19" height="17" viewBox="0 0 19 17" fill="none" xmlns="http://www.w3.org/2000/svg">
<path fill-rule="evenodd" clip-rule="evenodd" d="M16.875 8.86825L10 15.6773L3.12502 8.86825M3.12502 8.86825C1.88871 7.6652 1.4326 5.86987 1.94479 4.22261C2.45698 2.57536 3.8507 1.3552 5.55122 1.06531C7.25173 0.775417 8.97099 1.46489 10 2.84942C11.0334 1.47514 12.7489 0.794813 14.4433 1.08742C16.1376 1.38002 17.5257 2.59632 18.0383 4.23757C18.5508 5.87882 18.1017 7.66889 16.875 8.87375" fill="#EF4444"/>
<path d="M17.4028 9.40113C17.6971 9.10965 17.6994 8.63479 17.4079 8.34048C17.1164 8.04618 16.6416 8.04389 16.3473 8.33537L17.4028 9.40113ZM10 15.6773L9.47225 16.2101C9.76455 16.4996 10.2355 16.4996 10.5278 16.2101L10 15.6773ZM3.65278 8.33537C3.35848 8.04389 2.88361 8.04618 2.59214 8.34048C2.30066 8.63479 2.30295 9.10965 2.59725 9.40113L3.65278 8.33537ZM2.60197 9.40576C2.89883 9.69463 3.37366 9.68816 3.66253 9.3913C3.9514 9.09444 3.94493 8.61961 3.64807 8.33074L2.60197 9.40576ZM10 2.84942L9.39807 3.29681C9.53913 3.4866 9.76145 3.59876 9.99793 3.59941C10.2344 3.60007 10.4573 3.48916 10.5995 3.30015L10 2.84942ZM16.3495 8.33868C16.054 8.62894 16.0497 9.10379 16.34 9.3993C16.6302 9.69481 17.1051 9.69907 17.4006 9.40882L16.3495 8.33868ZM16.3473 8.33537L9.47225 15.1444L10.5278 16.2101L17.4028 9.40113L16.3473 8.33537ZM10.5278 15.1444L3.65278 8.33537L2.59725 9.40113L9.47225 16.2101L10.5278 15.1444ZM3.64807 8.33074C2.61406 7.32455 2.2326 5.823 2.66097 4.4453L1.22861 3.99993C0.632613 5.91674 1.16335 8.00585 2.60197 9.40576L3.64807 8.33074ZM2.66097 4.4453C3.08935 3.06759 4.255 2.0471 5.67725 1.80464L5.42518 0.325974C3.4464 0.663303 1.82461 2.08312 1.22861 3.99993L2.66097 4.4453ZM5.67725 1.80464C7.0995 1.56219 8.53743 2.13884 9.39807 3.29681L10.602 2.40203C9.40456 0.790947 7.40396 -0.0113542 5.42518 0.325974L5.67725 1.80464ZM10.5995 3.30015C11.4637 2.15075 12.8986 1.58175 14.3157 1.82648L14.5709 0.348355C12.5993 0.00787161 10.603 0.799523 9.40057 2.39868L10.5995 3.30015ZM14.3157 1.82648C15.7327 2.0712 16.8937 3.08847 17.3224 4.46115L18.7542 4.01399C18.1577 2.10417 16.5425 0.688838 14.5709 0.348355L14.3157 1.82648ZM17.3224 4.46115C17.7511 5.83383 17.3754 7.33098 16.3495 8.33868L17.4006 9.40882C18.828 8.0068 19.3506 5.92381 18.7542 4.01399L17.3224 4.46115Z" fill="#EF4444"/>
</svg>
