<svg width="19" height="17" viewBox="0 0 19 17" fill="none" xmlns="http://www.w3.org/2000/svg">
<path d="M17.4028 9.97389C17.6971 9.68241 17.6994 9.20754 17.4079 8.91324C17.1164 8.61894 16.6416 8.61665 16.3473 8.90812L17.4028 9.97389ZM10 16.25L9.47225 16.7829C9.76455 17.0724 10.2355 17.0724 10.5278 16.7829L10 16.25ZM3.65278 8.90812C3.35848 8.61665 2.88361 8.61894 2.59214 8.91324C2.30066 9.20754 2.30295 9.68241 2.59725 9.97389L3.65278 8.90812ZM2.60197 9.97852C2.89883 10.2674 3.37366 10.2609 3.66253 9.96406C3.9514 9.6672 3.94493 9.19237 3.64807 8.90349L2.60197 9.97852ZM10 3.42217L9.39807 3.86956C9.53913 4.05936 9.76145 4.17151 9.99793 4.17217C10.2344 4.17283 10.4573 4.06191 10.5995 3.8729L10 3.42217ZM16.3495 8.91144C16.054 9.20169 16.0497 9.67655 16.34 9.97206C16.6302 10.2676 17.1051 10.2718 17.4006 9.98157L16.3495 8.91144ZM16.3473 8.90812L9.47225 15.7171L10.5278 16.7829L17.4028 9.97389L16.3473 8.90812ZM10.5278 15.7171L3.65278 8.90812L2.59725 9.97389L9.47225 16.7829L10.5278 15.7171ZM3.64807 8.90349C2.61406 7.89731 2.2326 6.39576 2.66097 5.01805L1.22861 4.57268C0.632613 6.48949 1.16335 8.5786 2.60197 9.97852L3.64807 8.90349ZM2.66097 5.01805C3.08935 3.64035 4.255 2.61985 5.67725 2.3774L5.42518 0.898728C3.4464 1.23606 1.82461 2.65587 1.22861 4.57268L2.66097 5.01805ZM5.67725 2.3774C7.0995 2.13494 8.53743 2.7116 9.39807 3.86956L10.602 2.97478C9.40456 1.3637 7.40396 0.5614 5.42518 0.898728L5.67725 2.3774ZM10.5995 3.8729C11.4637 2.72351 12.8986 2.15451 14.3157 2.39923L14.5709 0.921109C12.5993 0.580626 10.603 1.37228 9.40057 2.97144L10.5995 3.8729ZM14.3157 2.39923C15.7327 2.64395 16.8937 3.66122 17.3224 5.0339L18.7542 4.58674C18.1577 2.67693 16.5425 1.26159 14.5709 0.921109L14.3157 2.39923ZM17.3224 5.0339C17.7511 6.40659 17.3754 7.90374 16.3495 8.91144L17.4006 9.98157C18.828 8.57955 19.3506 6.49656 18.7542 4.58674L17.3224 5.0339Z" fill="#F87171"/>
</svg>
